# xmcd CD database file
#
# Track frame offsets:
#	150
#	22435
#	44132
#	66155
#	88870
#	111963
#	133262
#	153613
#	174747
#	198291
#	220012
#	239344
#	257172
#	282942
#	303188
#
# Disc length: 4319 seconds
#
# Revision: 1
# Processed by: cddbd v1.5PL3 Copyright (c) Steve Scherf et al.
# Submitted via: CDex 1.51
#
DISCID=ea10dd0f
DTITLE=Frankie Ruiz - De Verdad...  (15 Super Exitos)
DYEAR=1997
DGENRE=Salsa
TTITLE0=Tú Me Vuelves Loco
TTITLE1=Desnúdate Mujer
TTITLE2=Bailando
TTITLE3=Tú Con Ël
TTITLE4=Mirándote
TTITLE5=Deseándote
TTITLE6=Quiero Llenarte
TTITLE7=Para Darte Fuego 
TTITLE8=Lo Dudo
TTITLE9=Nunca Te Quedas 
TTITLE10=Que Se Mueran De Envidia
TTITLE11=Perdón Señora
TTITLE12=Esta Cobardía
TTITLE13=Mi Libertad
TTITLE14=Puerto Rico
EXTD=YEAR: 1997
EXTT0=
EXTT1=
EXTT2=
EXTT3=
EXTT4=
EXTT5=
EXTT6=
EXTT7=
EXTT8=
EXTT9=
EXTT10=
EXTT11=
EXTT12=
EXTT13=
EXTT14=
PLAYORDER=
